<svg width="100" height="135" viewBox="0 0 100 135" fill="none" xmlns="http://www.w3.org/2000/svg">
<g clip-path="url(#clip0_2908_52)">
<path d="M51.2281 103.282C44.2105 103.282 37.614 102.207 31.4386 100.059C25.2632 97.8173 19.7895 94.5481 15.0175 90.2512C10.3392 85.861 6.64327 80.4432 3.92982 73.998C1.30993 67.5528 0 60.0801 0 51.5798C0 43.173 1.35673 35.747 4.07018 29.3018C6.78362 22.8565 10.5263 17.4856 15.2982 13.1887C20.0702 8.79844 25.5439 5.52913 31.7193 3.38073C37.8947 1.13891 44.3976 0.0180054 51.2281 0.0180054C59.9298 0.0180054 67.6958 1.51254 74.5263 4.50164C81.3568 7.49073 86.8772 11.8342 91.0877 17.5322C95.3919 23.2302 97.9649 30.1891 98.807 38.4091H72.5614C71.5322 33.5518 69.0059 29.4885 64.9825 26.2193C61.0526 22.95 56.4211 21.3153 51.0877 21.3153C46.4094 21.3153 42.0586 22.4828 38.0351 24.8181C34.1053 27.0599 30.9239 30.4227 28.4912 34.9063C26.152 39.3899 24.9825 44.9478 24.9825 51.5798C24.9825 58.2118 26.152 63.8163 28.4912 68.3935C30.9239 72.8771 34.1053 76.2865 38.0351 78.6218C41.9649 80.8636 46.3158 81.9845 51.0877 81.9845C56.6081 81.9845 61.2866 80.4432 65.1228 77.3607C69.0526 74.1848 71.4853 69.8412 72.421 64.3302H99.0877C97.8713 73.204 94.9708 80.5367 90.386 86.328C85.8947 92.1193 80.234 96.4162 73.4035 99.2184C66.6667 101.927 59.2748 103.282 51.2281 103.282Z" fill="white"/>
<path d="M0 126.282L100 126.282" stroke="white" stroke-width="17"/>
</g>
<defs>
<clipPath id="clip0_2908_52">
<rect width="100" height="135" fill="white"/>
</clipPath>
</defs>
</svg>
